<svg xmlns="http://www.w3.org/2000/svg" viewBox="0 0 52.41 47.67"><defs><style>.cls-1{fill:#e94c57;}</style></defs><g id="Capa_2" data-name="Capa 2"><g id="Capa_2-2" data-name="Capa 2"><path class="cls-1" d="M52.21,22.12a3.76,3.76,0,0,1-.7-1.51,5.07,5.07,0,0,0-.13-.56,17.16,17.16,0,0,0-.9-1.48,3.9,3.9,0,0,1-.54-1.3,38.53,38.53,0,0,0-4.35-4A32.92,32.92,0,0,0,31.36,7.76a14.92,14.92,0,0,0-7.86.57c-1.08.43-2,1.09-1.73,2.43s1.49,1.42,2.64,1.29A25.3,25.3,0,0,1,29,11.6a29.56,29.56,0,0,1,14.59,5.21,16.83,16.83,0,0,1,2.12,2.11l0,0A5.26,5.26,0,0,1,47,22.65l.52-.2a8.79,8.79,0,0,1,.62,6,15.42,15.42,0,0,1-4.33,7.84C36.25,44,21.45,46,12.11,40.6A15.69,15.69,0,0,1,4.66,22.45C7.67,11.27,20.28,2.62,31.8,3.9a31.41,31.41,0,0,1,4,1c.95.23,1.9.2,2.36-.83S38,2.11,37,1.65A14.77,14.77,0,0,0,33.92.55C20.65-2.44,5.09,7.07,1,20.64A19.76,19.76,0,0,0,11,44.6a26.9,26.9,0,0,0,10.79,3c8.86.6,17-1.43,23.77-7.38,5-4.37,7.54-9.84,6.64-16.63A11.31,11.31,0,0,1,52.21,22.12Z"/></g></g></svg>